<svg width="29" height="29" viewBox="0 0 29 29" fill="none" xmlns="http://www.w3.org/2000/svg">
<path d="M20.9003 4.51426L17.5188 0L5.69227 8.53008H10.4614L20.9003 4.51426ZM24.0835 8.53008L22.7354 4.88242L12.6138 8.53008H24.0835ZM24.7915 8.08262H26.7286C27.2837 8.08262 27.6405 8.51309 27.6405 9.06816V15.2477L28.5128 14.8115L28.5014 8.60371C28.5014 8.04863 27.7255 7.19336 27.1704 7.19336H24.4346L24.7462 8.02598L24.7915 8.08262ZM27.6348 22.3674V27.448C28.1389 27.3971 28.5241 26.9383 28.5241 26.4229L28.5184 21.9256L27.6348 22.3674ZM2.3448 8.08262H4.90496L6.14539 7.19336H3.23973L3.26238 7.1877C1.11004 7.1877 0.458672 7.21035 0.475664 9.88379V27.9748C0.475664 28.5299 1.02508 29 1.58016 29H25.8337C26.3888 29 26.9438 28.5412 26.9438 27.9918V23.1604L26.8362 23.2113H24.6102C22.6448 23.2113 21.0475 21.6197 21.0475 19.6486C21.0475 17.6775 22.6391 16.0859 24.6102 16.0859H26.8362L26.9382 16.035V9.97441C26.9382 9.41934 26.3888 8.96621 25.8337 8.96621H3.23406C3.16043 8.96621 3.0868 8.96055 3.01316 8.94922H2.46375C2.2202 8.94922 2.02195 8.75098 2.01629 8.50176C2.02762 8.31484 2.15223 8.13926 2.3448 8.08262ZM26.8362 16.9809H24.6102C23.1376 16.9809 21.9425 18.176 21.9425 19.6486C21.9425 21.1213 23.1376 22.3164 24.6102 22.3164H26.8362L28.5071 20.9117L28.5014 15.6045L26.8362 16.9809ZM23.2792 19.6543C23.2792 18.918 23.8796 18.3176 24.6159 18.3176C25.3522 18.3176 25.9526 18.918 25.9526 19.6543C25.9526 20.3906 25.3522 20.991 24.6159 20.991C23.8739 20.991 23.2792 20.3906 23.2792 19.6543Z" fill="#479572"/>
</svg>
